<?xml version="1.0" encoding="UTF-8" standalone="no"?>
<svg
   xmlns:dc="http://purl.org/dc/elements/1.1/"
   xmlns:cc="http://creativecommons.org/ns#"
   xmlns:rdf="http://www.w3.org/1999/02/22-rdf-syntax-ns#"
   xmlns:svg="http://www.w3.org/2000/svg"
   xmlns="http://www.w3.org/2000/svg"
   xmlns:sodipodi="http://sodipodi.sourceforge.net/DTD/sodipodi-0.dtd"
   xmlns:inkscape="http://www.inkscape.org/namespaces/inkscape"
   width="35.304119mm"
   height="41.049702mm"
   viewBox="0 0 35.304119 41.049702"
   version="1.1"
   id="svg2853"
   inkscape:version="1.0 (4035a4fb49, 2020-05-01)"
   sodipodi:docname="sumo_front.svg">
  <defs
     id="defs2847" />
  <sodipodi:namedview
     id="base"
     pagecolor="#ffffff"
     bordercolor="#666666"
     borderopacity="1.0"
     inkscape:pageopacity="0.0"
     inkscape:pageshadow="2"
     inkscape:zoom="3.959798"
     inkscape:cx="111.80748"
     inkscape:cy="116.3284"
     inkscape:document-units="mm"
     inkscape:current-layer="layer1"
     inkscape:document-rotation="0"
     showgrid="false"
     inkscape:pagecheckerboard="true"
     inkscape:window-width="3840"
     inkscape:window-height="2066"
     inkscape:window-x="-11"
     inkscape:window-y="-11"
     inkscape:window-maximized="1" />
  <metadata
     id="metadata2850">
    <rdf:RDF>
      <cc:Work
         rdf:about="">
        <dc:format>image/svg+xml</dc:format>
        <dc:type
           rdf:resource="http://purl.org/dc/dcmitype/StillImage" />
        <dc:title />
      </cc:Work>
    </rdf:RDF>
  </metadata>
  <g
     inkscape:label="Calque 1"
     inkscape:groupmode="layer"
     id="layer1"
     transform="translate(-109.37418,2.5470546)">
    <path
       inkscape:transform-center-y="-5.162893"
       inkscape:transform-center-x="-1.2851058"
       inkscape:connector-curvature="0"
       id="path4343"
       d="m 136.06895,-2.5469876 c -0.0881,-0.00282 -0.14685,0.08312 -0.28703,0.3042982 l -0.23145,0.3652065 0.37935,0.345384 c 0.20869,0.189862 0.40853,0.345631 0.44414,0.3461174 0.0358,1.318e-4 0.19919,-0.1636027 0.36323,-0.3645264 l 0.29822,-0.3652778 -0.24109,-0.1954137 c -0.1324,-0.1078181 -0.36261,-0.2630532 -0.51097,-0.3460272 -0.0978,-0.05504 -0.16149,-0.088265 -0.21454,-0.089565 z m -0.6635,0.9825572 c -0.10679,0.00737 -0.26963,0.1678338 -0.50603,0.4970859 -0.29106,0.4053429 -1.90223,2.5810765 -2.57318,3.4748778 -0.0152,0.020019 -0.2453,-0.1867323 -0.50905,-0.4631096 -1.02837,-1.0689068 -2.58561,-1.6130964 -4.67927,-1.6352137 -2.37031,-0.024956 -4.2875,0.6695002 -5.35176,1.9387337 -0.63358,0.7556405 -0.58653,1.5042482 0.14498,2.305248 0.15957,0.1753283 0.27768,0.326703 0.26221,0.33689 -0.0157,0.010448 -0.76172,0.2498621 -1.65783,0.5321877 -2.94558,0.9280399 -5.77049,2.443211 -7.13109,3.8248971 -3.13952,3.1881385 -4.99324,8.9098705 -3.51135,10.8380715 0.21295,0.277254 0.22503,0.392445 0.2226,2.133134 -0.003,1.918106 0.10895,2.710791 0.60782,4.310536 1.05839,3.393661 3.84037,6.946363 7.23663,9.241562 2.32699,1.572532 4.86582,2.482703 7.47826,2.680523 2.14943,0.16273 4.13663,-0.05792 6.10382,-0.677747 6.13751,-1.933949 10.93915,-7.153374 12.00912,-13.053954 0.1814,-1.000286 0.28119,-3.890598 0.14232,-4.121084 -0.0359,-0.05755 0.0299,-0.170058 0.14474,-0.248501 0.49545,-0.338748 0.92425,-2.245147 0.82569,-3.671435 -0.23133,-3.346531 -2.03085,-6.456887 -4.85698,-8.3955662 -1.70255,-1.1679716 -4.07481,-2.2504114 -6.60982,-3.015701 -0.59901,-0.1808221 -1.12603,-0.3650101 -1.17136,-0.4094081 -0.0447,-0.044913 0.16226,-0.2294503 0.46124,-0.4111542 0.8836,-0.5370045 2.59819,-1.5582176 3.96569,-2.3618221 1.75015,-1.0284679 1.68654,-0.9632569 1.36325,-1.3972416 -0.21238,-0.2851141 -0.23632,-0.370721 -0.12264,-0.4391833 0.10001,-0.060252 0.19888,0.00931 0.34014,0.2400739 0.10949,0.1788789 0.18923,0.3606387 0.1771,0.4037629 -0.0247,0.08797 0.63942,-0.2305674 0.94112,-0.4515546 0.19056,-0.1394962 0.18785,-0.1554928 -0.0951,-0.5648726 -0.16006,-0.2317643 -0.3297,-0.4228732 -0.37691,-0.4245469 -0.0902,-0.00301 -0.62281,0.3376802 -0.88455,0.566306 -0.0846,0.073804 -0.55019,0.3914254 -1.03472,0.7056982 -0.4845,0.3142108 -1.62217,1.0777151 -2.5281,1.6965469 -0.90599,0.6188738 -1.72844,1.1538764 -1.82779,1.1888449 -0.16711,0.058803 -0.1683,0.048997 -0.0169,-0.1294474 0.09,-0.1060998 0.95984,-1.1110558 1.93308,-2.2333848 0.97328,-1.1223016 1.78815,-2.0948051 1.81081,-2.161053 0.0411,-0.1197974 -0.39215,-0.5270244 -0.68352,-0.6427639 -0.0122,-0.00603 -0.0272,-0.0072 -0.0427,-0.00618 z M 135.1203,12.244191 c 1.73786,0.01965 1.98802,0.07872 3.27448,0.773437 1.48406,0.801426 1.94841,1.456277 3.11368,4.392134 0.63096,1.589746 1.19036,2.596809 1.55341,2.796414 0.23708,0.130336 0.23909,0.738501 0.007,2.083744 -0.88893,5.152106 -3.15135,8.891431 -6.76842,11.186538 -1.56426,0.992542 -3.17128,1.614373 -5.20612,2.014294 l -1.9e-4,-5e-6 c -0.81715,0.160545 -1.49901,0.210373 -2.98684,0.218689 -2.65481,0.01482 -3.91478,-0.177391 -6.18794,-0.944123 -5.1541,-1.738479 -8.12804,-5.070871 -9.17651,-10.282947 -0.31054,-1.544515 -0.27867,-4.371144 0.066,-5.832647 0.26047,-1.104651 0.62023,-2.118339 1.16983,-3.296137 0.18134,-0.388609 0.42898,-0.92501 0.55036,-1.192191 0.151,-0.332271 0.37689,-0.597532 0.715,-0.839906 0.83543,-0.598845 1.38394,-0.745955 2.93437,-0.787032 2.9099,-0.07717 5.77696,0.61049 7.22898,1.733923 1.34377,1.03981 2.26942,1.003448 4.06048,-0.159019 1.33534,-0.866711 2.04933,-1.222539 3.21432,-1.601406 0.80576,-0.262064 0.9745,-0.280302 2.43819,-0.263733 z m 3.80664,2.643544 -0.62851,0.656959 c -1.07623,1.124744 -1.71681,1.702042 -3.82176,3.44433 -2.06015,1.705218 -4.15473,3.192029 -5.39492,3.829659 -0.82889,0.426203 -0.76792,0.444607 0.35709,0.108085 0.93518,-0.279794 2.66555,-1.131558 4.15973,-2.047727 1.74419,-1.069496 5.26388,-3.612844 5.46322,-3.947778 0.14306,-0.240317 0.14095,-1.363556 -0.003,-1.718854 z M 114.60608,14.70115 c -0.26768,-0.0031 -0.42868,1.308106 -0.23138,1.884823 0.17944,0.524686 4.12657,3.472359 6.63799,4.957359 1.17876,0.696955 1.50471,0.853288 2.6744,1.282323 1.10805,0.406404 1.24549,0.378692 0.4068,-0.08201 -0.92921,-0.510408 -3.16623,-2.126859 -4.32773,-3.127219 -0.11044,-0.09531 -0.51747,-0.442139 -0.90449,-0.770824 -1.79701,-1.527081 -4.16745,-3.840804 -4.16492,-4.065173 6e-4,-0.04312 -0.0403,-0.07873 -0.0907,-0.0794 z m 22.61294,4.958013 c -0.0611,0.01518 -0.25711,0.149749 -0.47319,0.327371 -2.3135,1.901862 -5.15694,3.412091 -7.18469,3.815967 l -0.61018,0.121514 0.35328,0.152554 c 0.19439,0.08368 0.62664,0.215366 0.96061,0.292278 1.28878,0.296866 2.7339,0.134415 3.91127,-0.439732 0.84287,-0.411014 1.80362,-1.360079 2.28852,-2.260468 0.37086,-0.688611 0.84808,-1.930206 0.77186,-2.008179 -0.004,-0.0019 -0.008,-0.0039 -0.018,-4.91e-4 z M 116.20211,19.49411 c -0.10259,-0.02507 -0.0438,0.147931 0.0556,0.489698 0.71929,2.476281 2.30086,3.985836 4.57119,4.363074 0.61509,0.102177 2.05594,-0.01342 2.74882,-0.220405 0.56387,-0.168499 0.6653,-0.227571 0.50393,-0.293968 -0.11098,-0.04587 -0.3081,-0.08753 -0.43772,-0.09293 -0.40347,-0.01679 -1.72989,-0.522947 -2.74477,-1.047527 -1.21562,-0.628155 -2.73399,-1.630688 -3.78473,-2.498779 -0.54573,-0.450935 -0.80967,-0.67414 -0.91228,-0.69912 z m 11.77882,7.827583 c -0.86569,-0.0098 -1.33869,0.186836 -1.89459,0.78836 -0.45699,0.494465 -0.63612,1.052507 -0.64005,1.992743 -0.005,1.254715 0.64113,2.358063 1.67752,2.863236 0.53912,0.262601 1.34938,0.336053 1.81717,0.164265 0.49374,-0.181433 1.16594,-0.894217 1.4081,-1.493034 0.33174,-0.820251 0.34345,-2.093224 0.0259,-2.832087 -0.42546,-0.989837 -1.20002,-1.469959 -2.39406,-1.483491 z m 0.10475,0.483949 c 0.38773,0.0062 0.78345,0.188608 1.11295,0.561734 0.34433,0.389258 0.6524,1.211393 0.64663,1.723105 -0.004,0.36669 -0.41516,1.114011 -0.73933,1.34439 -0.31007,0.22039 -1.02207,0.297861 -1.4471,0.157649 -0.93253,-0.307629 -1.43597,-1.696544 -0.99087,-2.730291 0.30104,-0.69834 0.85071,-1.06557 1.41741,-1.056477 z"
       style="fill:#fffffd;stroke-width:0.382448;fill-opacity:1" />
  </g>
</svg>
